<svg width="2500" height="433" viewBox="0 0 2500 433" fill="none" xmlns="http://www.w3.org/2000/svg">
<g clip-path="url(#clip0_1143_8554)">
<path d="M23.6163 423.985C22.7693 423.086 25.1531 416.6 28.9143 409.574C36.579 395.254 199.246 82.6714 209.861 61.8575C220.278 41.4388 242.533 18.9579 261.658 9.54033L277.915 1.53195L382.054 0.795437L486.19 0.0540111L484.378 168.309L482.566 336.563L634.399 335.034C802.585 333.34 796.106 334.002 810.377 317.041C824.302 300.489 819.264 275.413 800.041 265.607C790.56 260.771 786.119 260.538 702.244 260.498C605.557 260.449 592.945 259.116 564.857 245.974C535.649 232.304 507.694 199.704 497.51 167.425C491.25 147.588 490.783 113.794 496.479 92.553C508.018 49.5159 540.785 18.8057 588.73 6.09835C602.63 2.41332 622.98 1.78728 756.155 0.95256L907.754 0V91.1414H771.256C618.527 91.1414 623.349 90.616 611.491 108.535C602.616 121.947 601.518 134.952 608.11 148.575C618.215 169.443 616.597 169.129 719.943 170.386C794.402 171.294 813.652 172.234 826.701 175.615C878.269 188.965 916.055 223.194 926.057 265.617C930.711 285.373 930.729 296.472 926.14 318.234C916.448 364.197 884.159 400.547 838.036 417.423L820.6 423.801L592.911 424.498L365.222 425.198L364.591 262.465L363.96 99.734L355.532 98.9312C329.582 96.459 316.789 107.229 296.621 148.509C288.617 164.891 256.012 232.39 224.162 298.507C192.313 364.622 165.442 419.507 164.45 420.472C162.113 422.738 25.6515 426.143 23.6163 423.985ZM944.58 211.326V0.0785617L1083.9 0.805257L1223.23 1.53195L1244.04 8.79154C1273.13 18.9407 1297.72 35.9346 1310.06 54.4162C1322.38 72.8684 1326.02 88.7968 1324.71 118.645C1323.83 138.821 1322.61 144.158 1315.71 158.186C1301.75 186.537 1278.26 203.102 1235.96 214.414L1224.15 217.577L1242.99 229.852C1269.18 246.917 1289.37 269.189 1300.77 293.59C1312.78 319.309 1317.95 344.842 1319.57 386.361L1320.89 420.118H1185.87L1184.43 393.727C1181.98 349.027 1171.09 319.756 1148.51 297.231C1127.88 276.64 1104.06 267.196 1064.44 263.891L1045.24 262.288V422.573H944.58V211.326ZM1174.13 158.655C1192.56 149.439 1197.67 125.507 1184.1 111.936C1174.75 102.589 1162.82 100.989 1102.32 100.976L1045.24 100.962V165.24L1104.77 164.403C1158.39 163.649 1165.28 163.077 1174.13 158.655ZM1494.47 420.054C1444.29 414.175 1398.44 393.987 1365.68 363.343C1269.51 273.375 1328.95 140.301 1477.94 112.039C1505.28 106.851 1551.77 107.283 1579.21 112.977C1650.95 127.859 1707.85 171.088 1726.59 224.942C1732.17 240.963 1733.97 273.036 1730.3 290.744C1713.07 373.742 1605 433.002 1494.47 420.054ZM1549.66 350.068C1588.55 339.941 1613.07 314.585 1619.9 277.453C1622.33 264.223 1622.15 259.271 1618.73 245.81C1611.68 218.085 1594.47 198.108 1566.23 184.87C1553.69 178.99 1549.36 178.296 1525.2 178.296C1500.68 178.296 1496.92 178.919 1484.39 185.079C1464.07 195.059 1449.23 209.286 1440.38 227.267C1415.27 278.27 1444.63 335.883 1503.1 350.373C1520.03 354.566 1532.71 354.485 1549.66 350.068ZM1506.3 328.437C1445.63 311.391 1437.01 234.718 1492.57 206.242C1507.04 198.822 1533.89 197.17 1550.46 202.677C1565.39 207.634 1583.58 223.029 1590.9 236.9C1599.34 252.89 1598.54 277.455 1589.01 294.761C1573.87 322.289 1537.35 337.157 1506.3 328.437ZM1960.6 419.868C1869.02 412.815 1794.93 378.414 1761.37 327.371C1745.5 303.233 1741.24 290.141 1741.24 265.45C1741.24 240.846 1745.5 227.662 1761.13 203.882C1785.09 167.43 1826.54 139.567 1879.88 124.044C1918.68 112.751 1940.87 110.269 2014.37 108.987L2083.72 107.777V181.202L2036.46 182.813C2010.34 183.702 1981.55 186.063 1972.09 188.096C1936.52 195.731 1903.08 217.25 1892.35 239.419C1885.57 253.437 1885.6 275.069 1892.42 289.171C1902.86 310.726 1934.31 331.908 1968.56 340.44C1979.01 343.047 2000.97 344.827 2034.01 345.747L2083.72 347.132V422.573L2035.24 422.23C2008.57 422.038 1974.98 420.975 1960.6 419.868ZM2098.45 211.439V0.304426H2228.57V186.888H2250.15C2301.54 186.888 2336.53 166.899 2356.26 126.281L2364.83 108.634L2417.07 108.481C2477.04 108.305 2472.9 106.485 2472.65 132.877C2472.33 166.58 2448.89 198.56 2408.2 220.815L2395.86 227.559L2412.79 240.792C2457.05 275.408 2473.32 312.312 2475.86 383.906L2477.23 422.573H2354.37L2352.65 396.182C2348.53 332.888 2331.98 298.824 2297.05 281.796C2281.59 274.259 2263.16 270.36 2242.97 270.36H2228.57V422.573H2098.45V211.439Z" fill="#5C5C5C"/>
</g>
<defs>
<clipPath id="clip0_1143_8554">
<rect width="2500" height="433" fill="white"/>
</clipPath>
</defs>
</svg>
