<svg width="600" height="189" viewBox="0 0 600 189" fill="none" xmlns="http://www.w3.org/2000/svg">
<path fill-rule="evenodd" clip-rule="evenodd" d="M177.505 127.241C171.346 121.458 167.323 120.578 162.294 116.932C146.957 105.744 143.312 82.2359 155.003 67.0248C158.397 62.6248 162.546 59.6078 167.197 56.465C172.1 53.1964 176.5 48.5451 178.888 43.6423C183.54 33.8368 182.408 21.3913 175.243 12.0886C168.454 3.28873 157.643 -1.36261 145.952 0.900206C140.42 1.9059 135.769 4.16872 130.992 8.44293C126.215 12.7171 124.958 17.2428 119.427 22.6484C110.752 31.1968 100.318 35.3453 87.8728 34.5911C81.8386 34.2139 76.6844 32.7054 70.6502 29.3111C64.1132 25.6655 61.4732 21.1399 56.4447 20.0084C51.1648 18.7513 45.3821 20.2599 41.8621 24.2827C37.0851 29.814 37.7136 34.8425 39.8507 41.3795C41.8621 47.5394 43.4964 53.5736 43.8735 60.1106C44.2507 66.5219 43.4964 73.059 41.6107 79.2188C38.2165 90.5329 30.0452 101.093 22.1253 108.133C15.5883 113.915 11.0627 114.795 6.78845 118.818C2.63995 122.59 0 127.995 0 134.029C0 144.589 7.54273 153.389 17.474 155.149C25.2681 156.658 32.6851 153.012 35.0737 152.258C51.2905 147.103 71.6559 147.732 86.3642 152.006C98.5583 155.526 108.992 161.812 118.798 169.732C123.575 173.503 127.095 178.657 132.123 182.177C144.946 191.228 166.946 193.114 181.025 174.886C190.58 162.817 192.842 141.572 177.505 127.241Z" fill="#5C5C5C"/>
<path fill-rule="evenodd" clip-rule="evenodd" d="M369.971 49.4242C363.937 47.0357 359.411 51.5613 358.28 54.5784L336.406 111.903L314.532 54.5784C313.401 51.687 308.875 47.0357 302.841 49.4242C296.304 51.9384 296.681 58.0983 297.687 60.864C297.687 60.864 315.915 108.635 321.824 124.097C325.218 133.023 331.88 134.908 336.28 134.908C340.68 134.908 347.343 133.023 350.737 124.097C356.646 108.635 374.874 60.864 374.874 60.864C376.257 58.0983 376.508 51.9384 369.971 49.4242ZM277.321 48.6699C270.784 48.6699 268.144 53.8241 268.144 57.5955V64.6354C261.356 55.4584 252.179 49.4242 239.608 49.4242C229.425 49.4242 220.625 53.5727 213.46 61.744C206.294 70.041 202.648 79.9722 202.648 91.6635C202.648 103.229 206.294 113.16 213.46 121.457C220.625 129.754 229.425 133.903 239.608 133.903C253.059 133.903 262.362 126.611 268.144 118.566V126.109C268.144 129.503 270.91 134.783 277.196 134.783C283.481 134.783 286.121 129.377 286.121 125.857V57.7212C286.247 51.9384 281.219 48.6699 277.321 48.6699ZM244.385 117.686C230.682 117.686 220.751 105.115 220.751 91.6635C220.751 77.458 230.934 65.7668 244.385 65.7668C258.842 65.7668 268.019 78.7151 268.019 91.6635C268.019 105.366 258.213 117.686 244.385 117.686ZM453.947 48.6699C447.41 48.6699 444.77 53.8241 444.77 57.5955V64.6354C437.981 55.4584 428.805 49.4242 416.233 49.4242C406.051 49.4242 397.251 53.5727 390.085 61.744C382.92 70.041 379.274 79.9722 379.274 91.6635C379.274 103.229 382.92 113.16 390.085 121.457C397.251 129.754 406.051 133.903 416.233 133.903C429.685 133.903 438.987 126.611 444.77 118.566V126.109C444.77 129.503 447.536 134.783 453.821 134.783C460.107 134.783 462.747 129.377 462.747 125.857V57.7212C462.747 51.9384 457.844 48.6699 453.947 48.6699ZM421.01 117.686C407.308 117.686 397.377 105.115 397.377 91.6635C397.377 77.458 407.559 65.7668 421.01 65.7668C435.467 65.7668 444.644 78.7151 444.644 91.6635C444.519 105.366 434.839 117.686 421.01 117.686Z" fill="#5C5C5C"/>
<path d="M477.958 124.853C475.947 123.721 474.312 121.333 474.312 118.19C474.312 113.916 477.581 110.521 481.981 110.521C483.615 110.521 484.998 111.024 486.129 111.653C494.175 117.058 502.472 119.698 510.015 119.698C518.186 119.698 522.963 116.178 522.963 110.773V110.396C522.963 103.984 514.163 102.099 504.358 99.0817C492.038 95.5617 478.335 90.2818 478.335 74.3164V73.9392C478.335 58.2252 491.409 48.5454 507.878 48.5454C516.677 48.5454 525.98 51.0596 534.026 55.3338C536.666 56.7167 538.551 59.2309 538.551 62.6251C538.551 67.0251 535.031 70.2936 530.632 70.2936C528.997 70.2936 528.117 69.9165 526.86 69.2879C520.072 65.768 513.158 63.6308 507.375 63.6308C499.958 63.6308 495.684 67.1508 495.684 71.8021V72.1793C495.684 78.3392 504.609 80.4763 514.415 83.6191C526.483 87.3904 540.186 93.1732 540.186 108.133V108.51C540.186 125.984 526.609 134.658 509.386 134.658C499.078 134.784 487.512 131.515 477.958 124.853ZM557.66 110.647V67.4022H554.014C549.488 67.4022 545.843 63.7566 545.843 59.2309C545.843 54.7053 549.488 51.0596 554.014 51.0596H557.66V38.237C557.66 33.0828 561.431 28.8086 566.711 28.8086C571.865 28.8086 575.636 33.0828 575.636 38.237V51.0596H589.842C594.368 51.0596 598.139 54.7053 598.139 59.2309C598.139 63.7566 594.368 67.4022 589.842 67.4022H575.636V107.63C575.636 115.047 579.911 117.938 586.322 117.938C588.585 117.938 590.471 117.436 591.099 117.436C595.373 117.436 599.145 120.83 599.145 125.23C599.145 128.624 596.756 131.515 594.116 132.647C589.968 134.03 586.071 134.784 581.042 134.784C567.088 134.91 557.66 128.75 557.66 110.647Z" fill="#5C5C5C"/>
</svg>
