<svg width="935" height="219" viewBox="0 0 935 219" fill="none" xmlns="http://www.w3.org/2000/svg">
<path d="M66.4491 173.957C58.0541 173.957 50.4224 167.096 50.4224 158.71C50.4224 150.325 57.291 143.464 66.4491 143.464C75.6072 143.464 82.4758 150.325 82.4758 158.71C82.4758 167.096 74.844 173.957 66.4491 173.957ZM263.349 90.8639C261.822 78.6668 254.191 68.7567 244.269 61.1335L240.453 58.0842L237.401 61.8958C231.295 68.7567 229.006 80.9538 229.769 90.1016C230.532 96.9625 232.822 103.823 236.638 109.16C233.585 110.684 229.769 112.209 226.716 113.734C219.848 116.02 212.979 116.783 206.11 116.783H8.44765L7.68447 121.357C6.15811 135.841 8.44765 151.087 14.5531 164.809L17.6058 170.145V170.907C35.922 201.4 68.7386 215.122 104.608 215.122C173.294 215.122 229.769 185.391 256.48 121.357C274.033 122.119 291.586 117.545 299.981 100.774L302.271 96.9625L298.455 94.6755C288.534 88.577 274.796 87.8147 263.349 90.8639ZM164.899 78.6668H135.135V108.397H164.899V78.6668ZM164.899 41.3132H135.135V71.0436H164.899V41.3132ZM164.899 3.19727H135.135V32.9277H164.899V3.19727ZM201.531 78.6668H171.767V108.397H201.531V78.6668ZM90.8707 78.6668H61.1068V108.397H90.8707V78.6668ZM128.266 78.6668H98.5025V108.397H128.266V78.6668ZM54.2383 78.6668H24.4744V108.397H54.2383V78.6668ZM128.266 41.3132H98.5025V71.0436H128.266V41.3132ZM90.8707 41.3132H61.1068V71.0436H90.8707V41.3132Z" fill="#5C5C5C"/>
<path d="M777.728 155.661C790.702 144.226 803.676 133.554 816.65 122.119C821.229 118.307 825.808 114.496 830.387 109.922C826.571 105.348 821.229 102.298 815.887 100.012C805.966 96.1999 796.044 97.7246 786.123 103.061C773.912 109.922 768.57 121.356 769.333 135.078C769.333 140.414 770.86 145.751 773.912 150.325C776.202 152.612 776.965 154.136 777.728 155.661ZM792.992 166.333C799.097 168.62 806.729 168.62 813.597 167.096C816.65 165.571 825.808 161.759 828.861 162.522H830.387C832.677 163.284 834.203 164.809 834.966 167.096C837.256 171.669 836.493 176.243 831.914 178.53L830.387 179.293C813.597 189.203 796.044 187.678 779.254 178.53C771.623 173.956 765.517 167.858 760.938 160.235L760.175 158.71C749.491 140.414 751.017 120.594 763.228 103.061C767.044 96.9622 773.149 92.3883 779.254 88.5767L781.544 87.0521C797.571 77.9043 814.361 78.6666 830.387 86.2898C838.782 90.8637 846.414 96.9622 850.993 105.348L851.756 106.872C855.572 112.971 850.993 118.307 845.651 122.119L829.624 135.841C815.887 146.513 804.439 156.423 792.992 166.333ZM917.389 82.4782H918.916C924.258 82.4782 928.074 86.2898 928.074 91.626C928.074 99.2492 921.205 100.774 915.1 100.774C907.468 100.774 899.836 105.348 894.494 110.684C887.626 117.545 884.573 125.93 884.573 135.078V177.768C884.573 182.342 881.52 186.916 876.178 186.916H874.652C869.309 186.916 866.257 183.104 866.257 177.768V132.791C866.257 115.258 874.652 101.536 888.389 91.626C898.31 85.5275 907.468 82.4782 917.389 82.4782ZM699.121 112.209L719.727 91.626C722.016 90.1014 728.885 81.7159 731.938 81.7159H734.99C738.806 82.4782 741.859 84.7651 741.859 89.339V90.8637C741.859 93.913 738.043 96.9622 736.517 99.2492C732.701 103.823 728.122 107.635 724.306 112.209L702.937 133.554L730.411 160.997L738.043 168.62L741.096 171.669C741.859 173.194 742.622 173.956 742.622 175.481V177.768C741.859 181.58 738.806 184.629 734.99 184.629H733.464C730.411 184.629 727.358 181.58 725.069 179.293C721.253 175.481 716.674 171.669 712.858 167.096L699.121 154.136V175.481C699.121 180.055 696.068 184.629 690.726 184.629H689.2C683.857 184.629 680.805 180.817 680.805 175.481V58.084C680.805 53.5101 683.857 49.6985 689.2 49.6985H690.726C696.068 49.6985 699.121 53.5101 699.121 58.084V112.209ZM642.646 100.774C640.356 99.2492 635.014 99.2492 631.961 99.2492C617.461 98.4869 606.777 106.872 600.671 119.832C598.382 124.406 597.618 128.98 597.618 134.316C597.618 149.562 605.25 160.235 618.987 166.333C623.566 168.62 630.435 169.383 635.777 169.383C640.356 169.383 647.225 166.333 651.041 164.809H654.857C658.673 165.571 661.725 167.858 661.725 172.432V173.956C661.725 184.629 641.883 186.916 635.014 187.678C609.066 189.203 589.223 174.719 581.592 150.325C580.065 145.751 580.065 141.939 580.065 137.365V133.554C580.065 114.496 589.223 99.2492 606.013 90.1014C613.645 85.5275 622.04 83.2405 631.198 83.2405H635.014C644.172 83.2405 653.33 85.5275 660.962 90.8637L661.725 91.626L662.488 92.3883C663.252 93.913 664.015 95.4376 664.015 96.9622V98.4869C664.015 103.061 660.962 105.348 656.383 106.11H655.62C650.278 104.585 644.172 101.536 642.646 100.774ZM482.379 133.554C482.379 146.513 489.247 156.423 499.932 163.284C505.274 166.333 511.379 167.858 517.485 167.858C530.459 167.858 540.38 160.997 547.249 150.325C550.301 144.988 551.828 138.89 551.828 132.791C551.828 120.594 545.722 110.684 535.801 103.823C530.459 100.012 523.59 98.4869 517.485 98.4869C502.985 98.4869 492.3 106.11 486.195 119.069C482.379 124.406 482.379 128.98 482.379 133.554ZM514.432 81.7159H516.722C537.327 81.7159 552.591 91.626 562.512 109.159C566.328 116.02 568.618 123.643 568.618 132.029V135.841C568.618 154.898 559.46 170.145 542.67 179.293C535.038 183.867 526.643 186.154 517.485 186.154H513.669C494.59 186.154 479.326 177.006 470.168 160.235C465.589 152.612 463.299 144.226 463.299 135.078V131.267C463.299 112.209 472.457 96.9622 489.247 87.8144C497.642 84.0028 505.274 81.7159 514.432 81.7159ZM366.376 133.554C366.376 147.275 373.244 157.948 385.455 164.046C390.034 166.333 395.377 167.858 401.482 167.858C415.219 167.858 425.14 161.759 432.009 150.325C435.062 144.988 436.588 138.89 436.588 132.791C436.588 120.594 431.246 111.446 421.325 104.585C415.219 100.774 409.114 98.4869 401.482 98.4869C386.982 98.4869 376.297 106.11 370.192 119.069C367.902 124.406 366.376 128.98 366.376 133.554ZM436.588 94.6753V57.3217C436.588 52.7477 439.641 48.1738 444.983 48.1738H446.509C451.852 48.1738 454.904 51.9854 454.904 57.3217V135.841C454.904 154.898 445.746 170.145 428.956 179.293C421.325 183.867 412.93 186.154 403.772 186.154H399.956C380.876 186.154 365.613 177.006 356.455 160.235C351.875 152.612 349.586 144.226 349.586 135.078V131.267C349.586 112.209 358.744 96.9622 375.534 87.8144C383.166 83.2405 391.561 80.9535 400.719 80.9535H404.535C415.982 81.7159 427.43 86.2898 436.588 94.6753Z" fill="#5C5C5C"/>
</svg>
