<svg width="544" height="116" viewBox="0 0 544 116" fill="none" xmlns="http://www.w3.org/2000/svg">
<g clip-path="url(#clip0_1143_8564)">
<path d="M192.059 66.8122L188.816 75.9843H188.546C188.006 73.9161 187.015 70.7688 185.394 66.9921L168.009 23.3796H150.984V92.8897H162.244V49.9967C162.244 47.299 162.244 44.2417 162.154 40.4649C162.064 38.5765 161.884 37.1378 161.794 36.0587H162.064C162.604 38.7564 163.235 40.7347 163.685 41.9936L184.583 92.7099H192.51L213.227 41.544C213.677 40.375 214.128 38.037 214.578 36.0587H214.848C214.578 41.1843 214.398 45.7703 214.308 48.5579V92.62H226.288V23.1998H209.894L192.059 66.8122ZM237.638 42.8029H249.348V92.62H237.638V42.8029ZM243.583 21.761C241.601 21.761 239.98 22.4804 238.629 23.7393C237.277 24.9982 236.557 26.6169 236.557 28.5951C236.557 30.4835 237.277 32.1021 238.629 33.361C239.98 34.62 241.601 35.2494 243.583 35.2494C245.564 35.2494 247.276 34.53 248.537 33.361C249.888 32.1021 250.609 30.4835 250.609 28.5951C250.609 26.7068 249.888 25.0882 248.537 23.7393C247.366 22.4804 245.655 21.761 243.583 21.761ZM290.873 42.3533C288.711 41.9037 286.459 41.6339 284.297 41.6339C278.983 41.6339 274.119 42.8029 270.065 45.1409C266.012 47.4789 262.769 50.7161 260.697 54.7626C258.535 58.899 257.455 63.6649 257.455 69.1502C257.455 73.9161 258.535 78.1424 260.607 82.0091C262.679 85.7858 265.561 88.8432 269.435 90.9114C273.128 92.9796 277.451 94.0587 282.316 94.0587C287.9 94.0587 292.674 92.8897 296.458 90.7316L296.548 90.6417V79.851L296.097 80.2107C294.386 81.4696 292.404 82.5486 290.422 83.1781C288.351 83.8975 286.459 84.2572 284.838 84.2572C280.154 84.2572 276.461 82.9083 273.848 79.9409C271.146 77.0634 269.795 73.1068 269.795 68.161C269.795 63.0355 271.146 58.9889 273.939 56.0215C276.731 53.0541 280.424 51.5254 284.928 51.5254C288.711 51.5254 292.584 52.7843 296.097 55.3021L296.548 55.6618V44.2417L296.458 44.1517C294.926 43.5223 293.215 42.8029 290.873 42.3533ZM329.516 41.9936C326.633 41.9936 323.931 42.8928 321.589 44.7812C319.607 46.3998 318.256 48.7378 317.085 51.5254H316.995V42.8029H305.285V92.62H316.995V67.1719C316.995 62.8556 317.896 59.2587 319.877 56.651C321.859 53.9533 324.381 52.6045 327.444 52.6045C328.525 52.6045 329.606 52.8742 330.957 53.0541C332.218 53.4138 333.119 53.7734 333.749 54.2231L334.2 54.5827V42.8928L333.929 42.8029C333.119 42.2634 331.497 41.9936 329.516 41.9936ZM361.403 41.7238C353.206 41.7238 346.63 44.1517 342.036 48.9176C337.352 53.6835 335.1 60.2479 335.1 68.5207C335.1 76.2541 337.442 82.5486 341.946 87.1347C346.45 91.6308 352.575 93.9688 360.232 93.9688C368.248 93.9688 374.644 91.5409 379.238 86.6851C383.922 81.8293 386.174 75.3548 386.174 67.3517C386.174 59.4386 384.012 53.144 379.598 48.5579C375.364 43.9719 369.149 41.7238 361.403 41.7238ZM370.771 80.0308C368.609 82.8184 365.186 84.1672 360.952 84.1672C356.719 84.1672 353.296 82.8184 350.864 79.851C348.432 77.0634 347.261 73.0169 347.261 67.8913C347.261 62.5858 348.522 58.5393 350.864 55.6618C353.296 52.7843 356.629 51.3455 360.862 51.3455C365.006 51.3455 368.248 52.6944 370.59 55.482C372.932 58.2696 374.193 62.3161 374.193 67.6215C374.013 73.0169 373.022 77.2432 370.771 80.0308ZM412.296 63.4851C408.603 61.9564 406.261 60.7874 405.18 59.7983C404.279 58.899 403.829 57.6401 403.829 56.0215C403.829 54.6727 404.369 53.3238 405.72 52.4246C407.071 51.5254 408.603 51.0758 410.854 51.0758C412.836 51.0758 414.908 51.4355 416.89 51.975C418.871 52.5145 420.673 53.3238 422.114 54.4029L422.564 54.7626V43.792L422.294 43.7021C420.943 43.1626 419.141 42.6231 416.98 42.1734C414.818 41.8138 412.836 41.6339 411.215 41.6339C405.63 41.6339 401.036 42.9827 397.433 45.9502C393.83 48.7378 392.119 52.5145 392.119 56.9207C392.119 59.2587 392.479 61.3269 393.29 63.0355C394.1 64.744 395.271 66.3626 396.893 67.7114C398.514 68.9703 400.856 70.4091 404.099 71.7579C406.801 72.9269 408.873 73.8262 410.134 74.5455C411.395 75.2649 412.206 76.0742 412.836 76.7037C413.287 77.4231 413.557 78.3223 413.557 79.4913C413.557 82.8184 411.035 84.437 405.9 84.437C403.919 84.437 401.847 84.0773 399.415 83.268C396.983 82.4587 394.731 81.2897 392.839 79.9409L392.389 79.5812V91.0014L392.659 91.0913C394.371 91.9006 396.442 92.4401 398.964 93.0696C401.487 93.5192 403.738 93.8789 405.72 93.8789C411.755 93.8789 416.709 92.53 420.222 89.5626C423.825 86.6851 425.717 82.9983 425.717 78.2324C425.717 74.9052 424.816 71.9378 422.835 69.6897C420.222 67.5316 416.98 65.2835 412.296 63.4851ZM456.613 41.7238C448.416 41.7238 441.841 44.1517 437.247 48.9176C432.653 53.6835 430.311 60.2479 430.311 68.5207C430.311 76.2541 432.653 82.5486 437.157 87.1347C441.661 91.6308 447.786 93.9688 455.442 93.9688C463.459 93.9688 469.854 91.5409 474.448 86.6851C479.132 81.8293 481.384 75.3548 481.384 67.3517C481.384 59.4386 479.222 53.144 474.809 48.5579C470.575 43.9719 464.36 41.7238 456.613 41.7238ZM465.891 80.0308C463.729 82.8184 460.306 84.1672 456.073 84.1672C451.749 84.1672 448.416 82.8184 445.984 79.851C443.552 77.0634 442.381 73.0169 442.381 67.8913C442.381 62.5858 443.642 58.5393 445.984 55.6618C448.416 52.7843 451.749 51.3455 455.983 51.3455C460.036 51.3455 463.369 52.6944 465.711 55.482C468.053 58.2696 469.314 62.3161 469.314 67.6215C469.314 73.0169 468.143 77.2432 465.891 80.0308ZM543.987 52.4246V42.8029H532.187V28.0556L531.827 28.1455L520.657 31.4727L520.387 31.5626V42.8029H502.732V36.5083C502.732 33.6308 503.453 31.3827 504.714 29.944C505.975 28.5052 507.867 27.7858 510.209 27.7858C511.83 27.7858 513.541 28.1455 515.433 28.9548L515.883 29.2246V19.0634L515.613 18.9734C513.992 18.4339 511.83 18.0742 509.038 18.0742C505.525 18.0742 502.462 18.8835 499.67 20.2324C496.877 21.761 494.806 23.8293 493.274 26.6169C491.743 29.3145 490.932 32.3719 490.932 35.8789V42.8029H482.735V52.3347H490.932V92.62H502.732V52.4246H520.387V78.0525C520.387 88.5734 525.341 93.8789 535.25 93.8789C536.871 93.8789 538.583 93.6091 540.204 93.3393C541.915 92.9797 543.177 92.53 543.897 92.1703L543.987 92.0804V82.4587L543.537 82.8184C542.816 83.268 542.186 83.6277 541.105 83.8975C540.204 84.1672 539.393 84.2572 538.763 84.2572C536.421 84.2572 534.799 83.7176 533.628 82.3688C532.548 81.1099 532.007 79.0417 532.007 75.9843V52.4246H543.987Z" fill="#5C5C5C"/>
<path d="M0.015625 0H55.2324V55.1225H0.015625V0Z" fill="#5C5C5C"/>
<path d="M61 0H116.217V55.1225H61V0Z" fill="#5C5C5C"/>
<path d="M0.015625 60.877H55.2324V115.999H0.015625V60.877Z" fill="#5C5C5C"/>
<path d="M61 60.877H116.217V115.999H61V60.877Z" fill="#5C5C5C"/>
</g>
<defs>
<clipPath id="clip0_1143_8564">
<rect width="544" height="116" fill="white"/>
</clipPath>
</defs>
</svg>
