<svg xmlns="http://www.w3.org/2000/svg" shape-rendering="geometricPrecision" text-rendering="geometricPrecision" image-rendering="optimizeQuality" fill-rule="evenodd" clip-rule="evenodd" viewBox="0 0 512 512"><g fill-rule="nonzero"><path fill="#4D4D4D" d="M256 0c70.684 0 134.689 28.664 181.013 74.987C483.337 121.311 512 185.316 512 256c0 70.684-28.663 134.689-74.987 181.013C390.689 483.337 326.684 512 256 512c-70.676 0-134.689-28.663-181.013-74.987C28.664 390.689 0 326.676 0 256c0-70.684 28.664-134.689 74.987-181.013C121.311 28.664 185.316 0 256 0z"/><path fill="#fff" d="M256.002 19.596c65.277 0 124.382 26.467 167.162 69.243 42.776 42.78 69.242 101.884 69.242 167.162s-26.466 124.383-69.245 167.16c-42.777 42.779-101.882 69.245-167.159 69.245-65.279 0-124.383-26.466-167.163-69.242-42.776-42.78-69.243-101.885-69.243-167.163S46.063 131.619 88.839 88.839c42.78-42.776 101.884-69.243 167.163-69.243z"/><path fill="#C1272D" d="M459.838 328.816c-29.899 83.693-109.867 143.592-203.836 143.592-93.97 0-173.938-59.899-203.837-143.592h407.673z"/><path fill="#006A44" d="M459.838 328.816H52.165c-8.13-22.755-12.571-47.267-12.571-72.815 0-30.994 6.531-60.457 18.265-87.112h396.287c11.741 26.653 18.262 56.121 18.262 87.112 0 25.548-4.44 50.06-12.57 72.815z"/><path fill="#FDB913" d="M454.14 168.886H57.859C91.381 92.753 167.475 39.594 256.002 39.594c88.523 0 164.62 53.159 198.138 129.292z"/></g></svg>